<svg xmlns="http://www.w3.org/2000/svg" width="275.75" height="156.88" viewBox="0 0 275.75 156.88">
  <defs>
    <style>
      .cls-1 {
        fill: #f9b828;
        fill-rule: evenodd;
      }
    </style>
  </defs>
  <path id="New_Video" data-name="New Video" class="cls-1" d="M1229.17,7187.1h16.04v-45l23.87,45h18.89v-65.61h-16.04v45l-23.86-45h-18.9v65.61Zm114.66-43.42q-6.96-6.99-18.56-6.99-12.75,0-20.02,6.9t-7.27,18.94q0,12.255,7.4,19.05t20.77,6.79a58.605,58.605,0,0,0,11.16-1.08,67.756,67.756,0,0,0,11.16-3.18v-12.13a52.229,52.229,0,0,1-10.7,4.46,37.325,37.325,0,0,1-10.17,1.47q-6.15,0-9.58-2.77t-4-8.3h36.78v-4.49Q1350.8,7150.665,1343.83,7143.68Zm-29.64,13.44a11.882,11.882,0,0,1,3.56-7.4,10.709,10.709,0,0,1,7.43-2.57,9,9,0,0,1,6.83,2.75,10.014,10.014,0,0,1,2.62,7.22h-20.44Zm53.54,29.98h17.19l8.26-33.84,8.3,33.84h17.19l12.96-49.22h-15.29l-8.31,33.57-8.26-33.57h-13.14l-8.31,33.92-8.26-33.92h-15.29Zm-122.08,90h20.17l24.31-65.61h-17.01l-17.36,48.42-17.4-48.42h-17.01Zm50.95,0h15.74v-49.22H1296.6v49.22Zm0-55.55h15.74v-12.83H1296.6v12.83Zm55,7.18a19.32,19.32,0,0,0-9.03-2.04,18.382,18.382,0,0,0-14.94,7.23q-5.85,7.23-5.84,18.61t5.84,18.61a18.382,18.382,0,0,0,14.94,7.23,19.447,19.447,0,0,0,9.06-2.02,21.41,21.41,0,0,0,7.16-6.37v7.12h15.82v-68.38h-15.82v26.36A21.682,21.682,0,0,0,1351.6,7228.73Zm-10.85,34.52q-2.655-3.69-2.66-10.72t2.66-10.72a9.858,9.858,0,0,1,15.38,0q2.655,3.69,2.66,10.72t-2.66,10.72A9.858,9.858,0,0,1,1340.75,7263.25Zm88.82-29.57q-6.96-6.99-18.57-6.99-12.735,0-20.01,6.9t-7.28,18.94q0,12.255,7.41,19.05t20.76,6.79a58.605,58.605,0,0,0,11.16-1.08,68.143,68.143,0,0,0,11.17-3.18v-12.13a52.46,52.46,0,0,1-10.7,4.46,37.45,37.45,0,0,1-10.18,1.47q-6.15,0-9.58-2.77t-4-8.3h36.78v-4.49Q1436.53,7240.665,1429.57,7233.68Zm-29.64,13.44a11.831,11.831,0,0,1,3.56-7.4,10.684,10.684,0,0,1,7.42-2.57,9.024,9.024,0,0,1,6.84,2.75,10.051,10.051,0,0,1,2.61,7.22h-20.43Zm78.05-5.42q2.715,3.75,2.72,10.83t-2.72,10.83a9.117,9.117,0,0,1-7.87,3.76,9.252,9.252,0,0,1-7.97-3.76q-2.76-3.75-2.75-10.83t2.75-10.83a9.252,9.252,0,0,1,7.97-3.76A9.117,9.117,0,0,1,1477.98,7241.7Zm-27.8-8.15q-7.185,6.855-7.18,18.98t7.18,18.98q7.185,6.855,19.93,6.86,12.705,0,19.84-6.86t7.14-18.98q0-12.135-7.14-18.98t-19.84-6.86Q1457.375,7226.69,1450.18,7233.55Z" transform="translate(-1221.34 -7121.5)"/>
</svg>
